<svg width="20" height="20" viewBox="0 0 20 20" fill="none" xmlns="http://www.w3.org/2000/svg">
    <path d="M7.064 6.14c2.973-.384 4.373-1.535 4.643-2.23 0 0 .429 1.439 1.865 2.01.272-.296.695-2.57-1.644-2.898 0 0-.761-2.014-3.758-.863-2.997 1.151-4.078 4.364-1.106 3.98zm6.507 5.498-3.086 4.697-.463-3.067.702-1.216a4.73 4.73 0 0 1-2.354 0l.703 1.216-.462 3.056-3.087-4.686C3.55 12.976 2.21 15.265 2.1 17.894a.292.292 0 0 0 .295.302h14.303a.292.292 0 0 0 .294-.302c-.11-2.628-1.448-4.918-3.422-6.256zM6.267 7.885l-.82.009c.197 2.11 1.957 3.763 4.1 3.763s3.903-1.652 4.1-3.763l-.851-.009-.204.72a.598.598 0 0 1-.589.513h-1.368a.598.598 0 0 1-.588-.508l-.25-.83h-.53l-.25.83a.598.598 0 0 1-.589.508H7.06a.598.598 0 0 1-.59-.513l-.203-.72zm.793.765h1.368c.073 0 .132-.06.132-.133l.318-1.051a.133.133 0 0 0-.132-.134l-1.95.117a.133.133 0 0 0-.133.133l.265.935c0 .073.06.133.132.133zm6.46-2.249-.118-.046a3.685 3.685 0 0 1-1.78-1.534c-.772.765-2.284 1.497-4.5 1.782a4.079 4.079 0 0 1-.518.036c-.451 0-.785-.09-1.034-.22a4.2 4.2 0 0 0-.14 1.007l.796-.008a.596.596 0 0 1 .551-.436l1.941-.117h.028c.275 0 .506.19.573.448h.425a.596.596 0 0 1 .574-.448h.027l1.941.117c.264.008.482.19.552.436l.826.008a4.198 4.198 0 0 0-.144-1.025zm-2.885 2.25h1.368c.073 0 .132-.06.132-.134l.265-.935a.133.133 0 0 0-.132-.133l-1.95-.117a.133.133 0 0 0-.133.134l.318 1.05c0 .074.06.134.132.134z" fill="#25282B"/>
</svg>
