<svg width="20" height="20" viewBox="0 0 20 20" fill="none" xmlns="http://www.w3.org/2000/svg">
    <path fill-rule="evenodd" clip-rule="evenodd" d="M10.168 18a4.166 4.166 0 0 1-4.16-4.154V12.22c0-1.044 1.59-1.044 1.59 0v1.626a2.578 2.578 0 0 0 2.57 2.567 2.578 2.578 0 0 0 2.57-2.567c0-.783.084-1.877-.165-2.531a2.576 2.576 0 0 0-.478-.791c-.69-.78.495-1.827 1.185-1.048 1.223 1.382 1.046 2.682 1.046 4.37A4.166 4.166 0 0 1 10.168 18zM9.373 6.531c0-1.045 1.59-1.045 1.59 0v6.938c0 1.045-1.59 1.045-1.59 0V6.53zM10.168 2a4.166 4.166 0 0 1 4.159 4.154V7.78c0 1.044-1.59 1.044-1.59 0V6.154a2.578 2.578 0 0 0-2.57-2.567 2.578 2.578 0 0 0-2.57 2.567c0 .782-.083 1.878.165 2.531.112.294.275.561.479.791.69.78-.496 1.827-1.186 1.048C5.832 9.142 6.01 7.843 6.01 6.154A4.166 4.166 0 0 1 10.168 2z" fill="#25282B"/>
</svg>
