<svg width="16" height="16" viewBox="0 0 16 16" fill="none" xmlns="http://www.w3.org/2000/svg">
    <path d="M3.22 14.9a1.32 1.32 0 0 1-1.319-1.32c0-.351.137-.681.384-.929.249-.248.578-.385.928-.385h10.658a.545.545 0 0 0 .255-.065.549.549 0 0 0 .391-.525V.551a.55.55 0 0 0-.55-.551H3.22A2.423 2.423 0 0 0 .8 2.42V13.11c0 .053.01.103.023.151a2.437 2.437 0 0 0-.023.32A2.423 2.423 0 0 0 3.22 16h10.65a.55.55 0 0 0 .001-1.101H3.221zm10.196-3.735H4.498V1.1h8.918v10.064zM1.901 2.42c0-.727.592-1.319 1.32-1.319h.176v10.064h-.184c-.473 0-.924.136-1.312.389V2.42z" fill="#fff"/>
    <path d="M3.482 13.032a.55.55 0 0 0 0 1.101h10.3a.55.55 0 1 0 0-1.101h-10.3z" fill="#fff"/>
</svg>
