<svg width="20" height="20" viewBox="0 0 20 20" fill="none" xmlns="http://www.w3.org/2000/svg">
    <circle cx="10" cy="10" r="10" fill="#F7F7F7"/>
    <path d="M12.292 5H7.707a1.045 1.045 0 0 0-1.04 1.038v8.757a1.04 1.04 0 0 0 1.04 1.038h4.585a1.044 1.044 0 0 0 1.041-1.038V6.038A1.04 1.04 0 0 0 12.293 5zm-1.81 9.72a.365.365 0 0 1-.367.366H9.88a.367.367 0 0 1-.367-.365v-.242a.365.365 0 0 1 .367-.365h.242a.367.367 0 0 1 .364.365l-.004.242zm2.037-1.336H7.473V6.038a.225.225 0 0 1 .227-.226h4.591a.227.227 0 0 1 .226.226v7.346z" fill="#25282B"/>
</svg>
