<svg width="24" height="24" viewBox="0 0 24 24" fill="none" xmlns="http://www.w3.org/2000/svg">
<path d="M20.7256 15.3103L18.8635 13.4483V10.2759C18.8613 8.56329 18.2264 6.91192 17.0807 5.63898C15.9351 4.36603 14.3595 3.56128 12.6566 3.37931V2H11.2773V3.37931C9.57911 3.5729 8.01045 4.3811 6.86708 5.65151C5.72371 6.92192 5.08464 8.56676 5.07038 10.2759V13.4483L3.20831 15.3103C3.141 15.3711 3.08765 15.4457 3.05193 15.529C3.01621 15.6124 2.99898 15.7025 3.00141 15.7931V17.8621C2.99532 17.9542 3.00898 18.0466 3.04148 18.133C3.07398 18.2195 3.12458 18.298 3.18988 18.3633C3.25517 18.4286 3.33367 18.4792 3.42011 18.5117C3.50654 18.5442 3.59893 18.5578 3.69107 18.5517H8.51866C8.51866 19.4663 8.88196 20.3433 9.52863 20.99C10.1753 21.6367 11.0524 22 11.9669 22C12.8815 22 13.7586 21.6367 14.4052 20.99C15.0519 20.3433 15.4152 19.4663 15.4152 18.5517H20.2428C20.3349 18.5578 20.4273 18.5442 20.5138 18.5117C20.6002 18.4792 20.6787 18.4286 20.744 18.3633C20.8093 18.298 20.8599 18.2195 20.8924 18.133C20.9249 18.0466 20.9385 17.9542 20.9324 17.8621V15.7931C20.9349 15.7025 20.9176 15.6124 20.8819 15.529C20.8462 15.4457 20.7929 15.3711 20.7256 15.3103ZM11.9669 20.6207C11.4182 20.6207 10.892 20.4027 10.504 20.0147C10.1159 19.6267 9.89797 19.1004 9.89797 18.5517H14.0359C14.0359 19.1004 13.8179 19.6267 13.4299 20.0147C13.0419 20.4027 12.5157 20.6207 11.9669 20.6207ZM19.5531 17.1724H4.38072V16.069L6.24279 14.2069C6.31011 14.1462 6.36346 14.0715 6.39917 13.9882C6.43489 13.9049 6.45212 13.8148 6.44969 13.7241V10.2759C6.44969 8.8126 7.03097 7.40927 8.06565 6.37458C9.10034 5.3399 10.5037 4.75862 11.9669 4.75862C13.4302 4.75862 14.8335 5.3399 15.8682 6.37458C16.9029 7.40927 17.4842 8.8126 17.4842 10.2759V13.7241C17.4817 13.8148 17.499 13.9049 17.5347 13.9882C17.5704 14.0715 17.6238 14.1462 17.6911 14.2069L19.5531 16.069V17.1724Z" fill="#52575C"/>
</svg>
